<?xml version="1.0" encoding="UTF-8" standalone="no"?>
<svg
   xmlns:dc="http://purl.org/dc/elements/1.1/"
   xmlns:cc="http://creativecommons.org/ns#"
   xmlns:rdf="http://www.w3.org/1999/02/22-rdf-syntax-ns#"
   xmlns:svg="http://www.w3.org/2000/svg"
   xmlns="http://www.w3.org/2000/svg"
   xmlns:sodipodi="http://sodipodi.sourceforge.net/DTD/sodipodi-0.dtd"
   xmlns:inkscape="http://www.inkscape.org/namespaces/inkscape"
   width="900"
   height="200"
   viewBox="0 0 720 160"
   version="1.1"
   id="svg2"
   inkscape:version="0.47 r22583"
   sodipodi:docname="midmeegon.svg"
   inkscape:export-filename="/tmp/midmeegon.png"
   inkscape:export-xdpi="90"
   inkscape:export-ydpi="90">
  <metadata
     id="metadata16">
    <rdf:RDF>
      <cc:Work
         rdf:about="">
        <dc:format>image/svg+xml</dc:format>
        <dc:type
           rdf:resource="http://purl.org/dc/dcmitype/StillImage" />
        <dc:title></dc:title>
      </cc:Work>
    </rdf:RDF>
  </metadata>
  <defs
     id="defs14">
    <inkscape:perspective
       sodipodi:type="inkscape:persp3d"
       inkscape:vp_x="0 : 86.25 : 1"
       inkscape:vp_y="0 : 1000 : 0"
       inkscape:vp_z="168.75 : 86.25 : 1"
       inkscape:persp3d-origin="84.375 : 57.5 : 1"
       id="perspective18" />
    <inkscape:perspective
       id="perspective3080"
       inkscape:persp3d-origin="44.453403 : 32.394536 : 1"
       inkscape:vp_z="88.906807 : 48.591805 : 1"
       inkscape:vp_y="0 : 1000 : 0"
       inkscape:vp_x="0 : 48.591805 : 1"
       sodipodi:type="inkscape:persp3d" />
    <inkscape:perspective
       id="perspective3201"
       inkscape:persp3d-origin="33.502964 : 10.276915 : 1"
       inkscape:vp_z="67.005928 : 15.415372 : 1"
       inkscape:vp_y="0 : 1000 : 0"
       inkscape:vp_x="0 : 15.415372 : 1"
       sodipodi:type="inkscape:persp3d" />
    <inkscape:perspective
       id="perspective3294"
       inkscape:persp3d-origin="12.058804 : 3.7325967 : 1"
       inkscape:vp_z="24.117607 : 5.5988951 : 1"
       inkscape:vp_y="0 : 1000 : 0"
       inkscape:vp_x="0 : 5.5988951 : 1"
       sodipodi:type="inkscape:persp3d" />
    <inkscape:perspective
       id="perspective3423"
       inkscape:persp3d-origin="73.513145 : 47.449554 : 1"
       inkscape:vp_z="147.02629 : 71.174332 : 1"
       inkscape:vp_y="0 : 1000 : 0"
       inkscape:vp_x="0 : 71.174332 : 1"
       sodipodi:type="inkscape:persp3d" />
    <inkscape:perspective
       id="perspective3612"
       inkscape:persp3d-origin="27.153917 : 14.676909 : 1"
       inkscape:vp_z="54.307835 : 22.015364 : 1"
       inkscape:vp_y="0 : 1000 : 0"
       inkscape:vp_x="0 : 22.015364 : 1"
       sodipodi:type="inkscape:persp3d" />
    <clipPath
       id="clip22">
      <rect
         id="rect238"
         y="0"
         x="0"
         height="75"
         width="45" />
    </clipPath>
    <filter
       id="alpha"
       color-interpolation-filters="sRGB"
       height="1"
       width="1"
       y="0"
       x="0"
       filterUnits="objectBoundingBox">
      <feColorMatrix
         type="matrix"
         in="SourceGraphic"
         values="0 0 0 0 1 0 0 0 0 1 0 0 0 0 1 0 0 0 1 0"
         id="feColorMatrix10" />
    </filter>
    <mask
       id="mask20">
      <g
         style="filter:url(#alpha)"
         id="g233">
        <rect
           style="fill:#ffffff;fill-opacity:0.60000598;stroke:none"
           id="rect235"
           y="0"
           x="0"
           height="841.89001"
           width="1190.55" />
      </g>
    </mask>
    <inkscape:perspective
       id="perspective4061"
       inkscape:persp3d-origin="32.150974 : 6.9353517 : 1"
       inkscape:vp_z="64.301949 : 10.403028 : 1"
       inkscape:vp_y="0 : 1000 : 0"
       inkscape:vp_x="0 : 10.403028 : 1"
       sodipodi:type="inkscape:persp3d" />
    <inkscape:perspective
       id="perspective4999"
       inkscape:persp3d-origin="16.288023 : 6.0443942 : 1"
       inkscape:vp_z="32.576046 : 9.0665913 : 1"
       inkscape:vp_y="0 : 1000 : 0"
       inkscape:vp_x="0 : 9.0665913 : 1"
       sodipodi:type="inkscape:persp3d" />
    <inkscape:perspective
       id="perspective5120"
       inkscape:persp3d-origin="33.502964 : 10.276915 : 1"
       inkscape:vp_z="67.005928 : 15.415372 : 1"
       inkscape:vp_y="0 : 1000 : 0"
       inkscape:vp_x="0 : 15.415372 : 1"
       sodipodi:type="inkscape:persp3d" />
  </defs>
  <sodipodi:namedview
     pagecolor="#ffffff"
     bordercolor="#666666"
     borderopacity="1"
     objecttolerance="10"
     gridtolerance="10"
     guidetolerance="10"
     inkscape:pageopacity="0"
     inkscape:pageshadow="2"
     inkscape:window-width="1400"
     inkscape:window-height="980"
     id="namedview12"
     showgrid="false"
     inkscape:zoom="13.222765"
     inkscape:cx="165.91158"
     inkscape:cy="287.29509"
     inkscape:window-x="0"
     inkscape:window-y="25"
     inkscape:window-maximized="1"
     inkscape:current-layer="svg2"
     inkscape:snap-bbox="true"
     inkscape:snap-nodes="false"
     inkscape:snap-grids="false"
     showguides="true"
     inkscape:guide-bbox="true"
     showborder="false"
     inkscape:showpageshadow="false">
    <inkscape:grid
       type="xygrid"
       id="grid3949"
       empspacing="5"
       visible="true"
       enabled="true"
       snapvisiblegridlinesonly="true" />
  </sodipodi:namedview>
  <g
     id="g9808"
     transform="matrix(0.39809487,0,0,0.54982402,-174.66686,-469.76104)">
    <path
       style="fill:#000000;fill-opacity:1;fill-rule:nonzero;stroke:none"
       id="path8626"
       d="m 772.84375,740.37891 -23.41797,13.69531 c -2.20703,1.28515 -3.05469,4.19922 -1.88281,6.47265 l 2.4414,4.73829 c 1.16797,2.27343 2.8086,3.85937 3.64454,3.52343 0.83984,-0.33203 1.11718,-2.65625 0.6289,-5.16406 l -0.26562,-1.34375 c -0.49219,-2.50781 0.95312,-5.53516 3.21484,-6.73437 l 17.86719,-9.45704" />
    <path
       style="fill:#000000;fill-opacity:1;fill-rule:nonzero;stroke:none"
       id="path8628"
       d="m 774.82031,733.62891 0.69141,27.12109 c 0.0664,2.55469 2.20703,4.70312 4.76172,4.77344 l 5.33593,0.14843 c 2.55469,0.0703 4.73438,-0.60156 4.84766,-1.49609 0.11328,-0.89453 -1.78906,-2.26562 -4.22266,-3.04297 l -1.30468,-0.41797 c -2.42969,-0.77734 -4.38672,-3.5039 -4.34766,-6.0625 l 0.33594,-20.21093" />
  </g>
  <path
     style="fill:#e66e33;fill-opacity:1;fill-rule:nonzero;stroke:none"
     id="path8576"
     d="m 130.25968,-65.075664 c -0.54642,0.223405 -1.28121,0.01843 -1.63399,-0.454461 l -8.20362,-11.005605 c -0.35279,-0.472894 -0.28914,-1.190516 0.14137,-1.594107 l 8.06517,-7.57327 c 0.43051,-0.403588 1.19887,-0.490134 1.70834,-0.192573 l 7.70271,4.503615 c 0.50947,0.297566 0.75527,0.992345 0.54461,1.544075 l -0.83355,2.190415 c -0.20996,0.55046 -0.12564,1.411279 0.18802,1.911444 l 0.0201,0.03266 c 0.31367,0.500165 0.0967,1.007795 -0.4802,1.128938 l -6.83259,1.429861 c -0.5779,0.121426 -0.74333,0.592881 -0.36972,1.049104 l 1.36975,1.669676 c 0.37459,0.45594 1.13462,0.66326 1.68798,0.460281 l 5.72939,-2.098966 c 0.55435,-0.203267 1.26849,0.03754 1.5875,0.534035 l 0.55378,0.863478 c 0.31802,0.496772 0.1318,1.085245 -0.41461,1.308649 l -10.5304,4.292751 z m 0,0" />
  <path
     style="fill:#4cc2e6;fill-opacity:1;fill-rule:nonzero;stroke:none"
     id="path1359"
     d="m 143.37455,-66.82222 c 0.0445,-0.896954 -0.59342,-1.631137 -1.41694,-1.631137 l -19.07406,0 c -0.82351,0 -1.39156,0.725527 -1.26303,1.613823 l 1.14244,7.831883 c 0.12853,0.888292 0.90602,1.554947 1.72794,1.482221 l 17.01133,-1.496073 c 0.82033,-0.07273 1.52802,-0.865787 1.57244,-1.762737 l 0.29988,-6.03798 z m 0,0" />
  <g
     id="g9460"
     transform="matrix(0.27196104,-0.06084709,0.06084709,0.27196104,-125.6575,-39.507213)"
     inkscape:transform-center-x="-3.8339176"
     inkscape:transform-center-y="-1.9659186">
    <path
       style="fill:#232323;fill-opacity:1;fill-rule:nonzero;stroke:none"
       id="path523"
       d="m 923.04297,66.722656 c -0.42578,-1.964844 0.82031,-3.902344 2.79297,-4.328125 1.96093,-0.425781 3.89843,0.824219 4.32422,2.789063" />
    <path
       style="fill:#232323;fill-opacity:1;fill-rule:nonzero;stroke:none"
       id="path525"
       d="m 934.87109,64.804688 c -0.27734,-1.988282 1.10938,-3.832032 3.10157,-4.109376 1.99218,-0.28125 3.83593,1.109376 4.11718,3.097657" />
  </g>
  <path
     style="fill:#000000;fill-opacity:1;fill-rule:nonzero;stroke:none"
     id="path640"
     d="m 135.39802,-62.594923 c 0.28587,0.568427 1.08758,0.636801 1.78416,0.152742 l 5.8918,-4.098108 c 0.69483,-0.483877 1.67302,-1.44095 2.17012,-2.126736 l 2.6194,-3.607973 c 0.49808,-0.685001 0.35155,-1.004313 -0.32709,-0.707525 -0.67766,0.297598 -1.66311,1.08291 -2.1887,1.74771 l -1.09239,1.377504 c -0.52656,0.664014 -1.55294,1.561917 -2.28129,1.996598 l -5.77054,3.443141 c -0.72757,0.433697 -1.09055,1.253229 -0.80547,1.822647" />
  <path
     style="fill:#4a963e;fill-opacity:1;fill-rule:nonzero;stroke:none"
     id="path646"
     d="m 135.63888,-62.12828 c 0.50215,0.681907 1.44587,0.796814 2.09604,0.253385 l 5.37788,-4.492785 c 0.65017,-0.543428 1.6681,-1.483522 2.25982,-2.089436 l 0.94482,-0.965799 c 0.59349,-0.606116 0.62884,-1.42918 0.0802,-1.828811 -0.54886,-0.401427 -1.43636,-0.192903 -1.97383,0.462479 l -0.36791,0.449731 c -0.53669,0.654388 -1.56522,1.557059 -2.28482,2.00511 l -6.03197,3.748406 c -0.7206,0.447278 -0.89792,1.372138 -0.39656,2.055035 l 0.2964,0.402695 z m 0,0" />
  <path
     style="fill:#ffc700;fill-opacity:1;fill-rule:nonzero;stroke:none"
     id="path8470"
     d="m 133.43504,-89.696065 c -0.16149,0.08374 -0.28012,0.214335 -0.36153,0.368284 -0.0129,0.0176 -0.0322,0.04404 -0.056,0.07246 -0.12711,0.157752 -0.35563,0.420698 -0.67618,0.746699 -1.91008,-2.959159 -4.76177,-5.271859 -8.06955,-3.543471 -3.44542,1.801046 -3.12665,5.432761 -1.80614,8.700681 -0.25223,0.04168 -0.47296,0.07169 -0.65025,0.0931 -0.17837,0.019 -0.31545,0.03044 -0.40144,0.03266 -0.0131,8e-5 -0.0283,0.0013 -0.036,0.0022 -0.007,7.85e-4 -0.0115,-9.14e-4 -0.0153,0.0012 -0.39125,-0.04757 -0.7616,0.182551 -0.89639,0.584835 -0.16774,0.49597 0.0866,1.07167 0.56738,1.283743 0.368,0.128049 0.31193,0.06411 0.40902,0.08577 0.38539,9.14e-4 1.28288,-0.08217 2.60629,-0.383495 1.3071,-0.302465 2.96937,-0.827968 4.67204,-1.714833 3.05194,-1.603709 5.10168,-3.781108 5.73075,-4.561092 0.0625,-0.07548 0.11308,-0.142526 0.1604,-0.21096 0.0225,-0.03662 0.044,-0.06978 0.0805,-0.133208 0.0161,-0.03364 0.0353,-0.07156 0.0661,-0.164239 -0.002,-0.0973 0.157,-0.223911 -0.0723,-0.796735 -0.25029,-0.487565 -0.81055,-0.694669 -1.25166,-0.463597" />
</svg>
